<mxfile host="app.diagrams.net" modified="2022-02-28T19:13:47.101Z" agent="5.0 (Windows NT 10.0; Win64; x64) AppleWebKit/537.36 (KHTML, like Gecko) Chrome/98.0.4758.102 Safari/537.36 Edg/98.0.1108.62" etag="ceJCPbTLDC957rZTRHtU" version="16.6.4" type="github">
  <diagram id="e-8Vvh9R2g4kuS1G3VwT" name="Page-1">
    <mxGraphModel dx="652" dy="357" grid="1" gridSize="10" guides="1" tooltips="1" connect="1" arrows="1" fold="1" page="1" pageScale="1" pageWidth="827" pageHeight="1169" math="0" shadow="0">
      <root>
        <mxCell id="0" />
        <mxCell id="1" parent="0" />
        <mxCell id="q6tc3JAIpinqQ0S7eNGi-1" value="" style="rounded=0;whiteSpace=wrap;html=1;" vertex="1" parent="1">
          <mxGeometry x="230" y="150" width="260" height="250" as="geometry" />
        </mxCell>
        <mxCell id="q6tc3JAIpinqQ0S7eNGi-2" value="&lt;font style=&quot;font-size: 18px&quot;&gt;Host&lt;/font&gt;" style="text;html=1;strokeColor=none;fillColor=none;align=center;verticalAlign=middle;whiteSpace=wrap;rounded=0;" vertex="1" parent="1">
          <mxGeometry x="230" y="150" width="60" height="30" as="geometry" />
        </mxCell>
        <mxCell id="q6tc3JAIpinqQ0S7eNGi-3" value="" style="rounded=0;whiteSpace=wrap;html=1;fontSize=18;" vertex="1" parent="1">
          <mxGeometry x="240" y="180" width="100" height="80" as="geometry" />
        </mxCell>
        <mxCell id="q6tc3JAIpinqQ0S7eNGi-4" value="&lt;font style=&quot;font-size: 16px&quot;&gt;frontend&lt;/font&gt;" style="text;html=1;strokeColor=none;fillColor=none;align=center;verticalAlign=middle;whiteSpace=wrap;rounded=0;fontSize=18;" vertex="1" parent="1">
          <mxGeometry x="260" y="195" width="60" height="30" as="geometry" />
        </mxCell>
        <mxCell id="q6tc3JAIpinqQ0S7eNGi-5" value="" style="rounded=0;whiteSpace=wrap;html=1;fontSize=16;" vertex="1" parent="1">
          <mxGeometry x="210" y="220" width="50" height="10" as="geometry" />
        </mxCell>
        <mxCell id="q6tc3JAIpinqQ0S7eNGi-6" value="&lt;font style=&quot;font-size: 14px&quot;&gt;8083&lt;/font&gt;" style="text;html=1;strokeColor=none;fillColor=none;align=center;verticalAlign=middle;whiteSpace=wrap;rounded=0;fontSize=16;" vertex="1" parent="1">
          <mxGeometry x="260" y="215" width="60" height="30" as="geometry" />
        </mxCell>
        <mxCell id="q6tc3JAIpinqQ0S7eNGi-7" value="&lt;font style=&quot;font-size: 14px&quot;&gt;0.0.0.0:8080&lt;/font&gt;" style="text;html=1;strokeColor=none;fillColor=none;align=center;verticalAlign=middle;whiteSpace=wrap;rounded=0;fontSize=16;" vertex="1" parent="1">
          <mxGeometry x="140" y="210" width="60" height="30" as="geometry" />
        </mxCell>
        <mxCell id="q6tc3JAIpinqQ0S7eNGi-8" style="edgeStyle=orthogonalEdgeStyle;rounded=0;orthogonalLoop=1;jettySize=auto;html=1;exitX=0.5;exitY=1;exitDx=0;exitDy=0;fontSize=14;" edge="1" parent="1" source="q6tc3JAIpinqQ0S7eNGi-7" target="q6tc3JAIpinqQ0S7eNGi-7">
          <mxGeometry relative="1" as="geometry" />
        </mxCell>
        <mxCell id="q6tc3JAIpinqQ0S7eNGi-10" value="" style="rounded=0;whiteSpace=wrap;html=1;fontSize=18;" vertex="1" parent="1">
          <mxGeometry x="370" y="290" width="100" height="80" as="geometry" />
        </mxCell>
        <mxCell id="q6tc3JAIpinqQ0S7eNGi-11" value="&lt;font style=&quot;font-size: 16px&quot;&gt;list&lt;/font&gt;" style="text;html=1;strokeColor=none;fillColor=none;align=center;verticalAlign=middle;whiteSpace=wrap;rounded=0;fontSize=18;" vertex="1" parent="1">
          <mxGeometry x="390" y="305" width="60" height="30" as="geometry" />
        </mxCell>
        <mxCell id="q6tc3JAIpinqQ0S7eNGi-12" value="&lt;font style=&quot;font-size: 14px&quot;&gt;8080&lt;/font&gt;" style="text;html=1;strokeColor=none;fillColor=none;align=center;verticalAlign=middle;whiteSpace=wrap;rounded=0;fontSize=16;" vertex="1" parent="1">
          <mxGeometry x="390" y="325" width="60" height="30" as="geometry" />
        </mxCell>
        <mxCell id="q6tc3JAIpinqQ0S7eNGi-13" value="" style="rounded=0;whiteSpace=wrap;html=1;fontSize=18;" vertex="1" parent="1">
          <mxGeometry x="370" y="180" width="100" height="80" as="geometry" />
        </mxCell>
        <mxCell id="q6tc3JAIpinqQ0S7eNGi-14" value="&lt;font style=&quot;font-size: 14px&quot;&gt;8081&lt;/font&gt;" style="text;html=1;strokeColor=none;fillColor=none;align=center;verticalAlign=middle;whiteSpace=wrap;rounded=0;fontSize=16;" vertex="1" parent="1">
          <mxGeometry x="390" y="215" width="60" height="30" as="geometry" />
        </mxCell>
        <mxCell id="q6tc3JAIpinqQ0S7eNGi-15" value="&lt;font style=&quot;font-size: 16px&quot;&gt;img&lt;/font&gt;" style="text;html=1;strokeColor=none;fillColor=none;align=center;verticalAlign=middle;whiteSpace=wrap;rounded=0;fontSize=18;" vertex="1" parent="1">
          <mxGeometry x="390" y="195" width="60" height="30" as="geometry" />
        </mxCell>
        <mxCell id="q6tc3JAIpinqQ0S7eNGi-16" value="" style="rounded=0;whiteSpace=wrap;html=1;fontSize=18;" vertex="1" parent="1">
          <mxGeometry x="240" y="290" width="100" height="80" as="geometry" />
        </mxCell>
        <mxCell id="q6tc3JAIpinqQ0S7eNGi-17" value="&lt;font style=&quot;font-size: 14px&quot;&gt;8082&lt;/font&gt;" style="text;html=1;strokeColor=none;fillColor=none;align=center;verticalAlign=middle;whiteSpace=wrap;rounded=0;fontSize=16;" vertex="1" parent="1">
          <mxGeometry x="260" y="325" width="60" height="30" as="geometry" />
        </mxCell>
        <mxCell id="q6tc3JAIpinqQ0S7eNGi-18" value="&lt;font style=&quot;font-size: 16px&quot;&gt;text&lt;/font&gt;" style="text;html=1;strokeColor=none;fillColor=none;align=center;verticalAlign=middle;whiteSpace=wrap;rounded=0;fontSize=18;" vertex="1" parent="1">
          <mxGeometry x="260" y="305" width="60" height="30" as="geometry" />
        </mxCell>
        <mxCell id="q6tc3JAIpinqQ0S7eNGi-26" value="" style="rounded=0;whiteSpace=wrap;html=1;fontSize=16;" vertex="1" parent="1">
          <mxGeometry x="460" y="214.66" width="50" height="10" as="geometry" />
        </mxCell>
        <mxCell id="q6tc3JAIpinqQ0S7eNGi-27" value="&lt;font style=&quot;font-size: 14px&quot;&gt;0.0.0.0:8081&lt;/font&gt;" style="text;html=1;strokeColor=none;fillColor=none;align=center;verticalAlign=middle;whiteSpace=wrap;rounded=0;fontSize=16;" vertex="1" parent="1">
          <mxGeometry x="530" y="204.66" width="60" height="30" as="geometry" />
        </mxCell>
        <mxCell id="q6tc3JAIpinqQ0S7eNGi-28" style="edgeStyle=orthogonalEdgeStyle;rounded=0;orthogonalLoop=1;jettySize=auto;html=1;exitX=0.5;exitY=1;exitDx=0;exitDy=0;fontSize=14;" edge="1" source="q6tc3JAIpinqQ0S7eNGi-27" target="q6tc3JAIpinqQ0S7eNGi-27" parent="1">
          <mxGeometry relative="1" as="geometry" />
        </mxCell>
        <mxCell id="q6tc3JAIpinqQ0S7eNGi-29" value="" style="endArrow=classic;html=1;rounded=0;fontSize=14;entryX=0.5;entryY=0;entryDx=0;entryDy=0;" edge="1" parent="1" target="q6tc3JAIpinqQ0S7eNGi-11">
          <mxGeometry width="50" height="50" relative="1" as="geometry">
            <mxPoint x="420" y="240" as="sourcePoint" />
            <mxPoint x="470" y="190" as="targetPoint" />
          </mxGeometry>
        </mxCell>
        <mxCell id="q6tc3JAIpinqQ0S7eNGi-31" value="" style="endArrow=classic;html=1;rounded=0;fontSize=14;entryX=0;entryY=0;entryDx=0;entryDy=0;" edge="1" parent="1" target="q6tc3JAIpinqQ0S7eNGi-12">
          <mxGeometry width="50" height="50" relative="1" as="geometry">
            <mxPoint x="310" y="325" as="sourcePoint" />
            <mxPoint x="360" y="275" as="targetPoint" />
          </mxGeometry>
        </mxCell>
        <mxCell id="q6tc3JAIpinqQ0S7eNGi-33" value="" style="endArrow=classic;html=1;rounded=0;fontSize=14;entryX=0.5;entryY=0;entryDx=0;entryDy=0;" edge="1" parent="1" target="q6tc3JAIpinqQ0S7eNGi-18">
          <mxGeometry width="50" height="50" relative="1" as="geometry">
            <mxPoint x="290" y="244.66" as="sourcePoint" />
            <mxPoint x="340" y="194.66" as="targetPoint" />
          </mxGeometry>
        </mxCell>
      </root>
    </mxGraphModel>
  </diagram>
</mxfile>
